<svg width="154" height="29" viewBox="0 0 154 29" fill="none" xmlns="http://www.w3.org/2000/svg">
    <path
        d="M33.5279 16.8806L28.5187 5.10434C26.8224 1.1091 23.7016 0.948001 21.6052 4.74992L18.5805 10.2434C17.0441 13.0304 14.1795 13.272 12.195 10.775L11.8429 10.3239C9.77847 7.71414 6.86581 8.03633 5.37747 11.0167L2.62484 16.5746C0.688394 20.4409 3.48903 25 7.77801 25H28.1987C32.3596 25 35.1603 20.7309 33.5279 16.8806Z"
        stroke="#292D32" stroke-width="2.5" stroke-linecap="round" stroke-linejoin="round" />
    <path
        d="M43.71 23V9.035H46.408V23H43.71ZM52.184 23L47.928 16.958H50.949L55.338 23H52.184ZM45.61 18.364V16.179H49.144C49.638 16.179 50.0623 16.0777 50.417 15.875C50.7843 15.6723 51.0693 15.3873 51.272 15.02C51.4747 14.6527 51.576 14.2347 51.576 13.766C51.576 13.2847 51.4747 12.8603 51.272 12.493C51.0693 12.1257 50.7843 11.8407 50.417 11.638C50.0623 11.4353 49.638 11.334 49.144 11.334H45.61V9.035H48.859C49.9737 9.035 50.9363 9.19967 51.747 9.529C52.5703 9.85833 53.2037 10.3587 53.647 11.03C54.0903 11.7013 54.312 12.5437 54.312 13.557V13.861C54.312 14.887 54.084 15.7293 53.628 16.388C53.1847 17.0467 52.5577 17.5407 51.747 17.87C50.9363 18.1993 49.9737 18.364 48.859 18.364H45.61ZM61.9493 23.361C61.0373 23.361 60.2329 23.2153 59.5363 22.924C58.8396 22.6327 58.2506 22.24 57.7693 21.746C57.2879 21.2393 56.9206 20.6693 56.6673 20.036C56.4266 19.4027 56.3063 18.744 56.3063 18.06V17.661C56.3063 16.9517 56.4329 16.2803 56.6863 15.647C56.9523 15.001 57.3259 14.431 57.8073 13.937C58.3013 13.4303 58.8966 13.0377 59.5933 12.759C60.2899 12.4677 61.0753 12.322 61.9493 12.322C62.8233 12.322 63.6086 12.4677 64.3053 12.759C65.0019 13.0377 65.5909 13.4303 66.0723 13.937C66.5663 14.431 66.9399 15.001 67.1933 15.647C67.4466 16.2803 67.5733 16.9517 67.5733 17.661V18.06C67.5733 18.744 67.4466 19.4027 67.1933 20.036C66.9526 20.6693 66.5916 21.2393 66.1103 21.746C65.6289 22.24 65.0399 22.6327 64.3433 22.924C63.6466 23.2153 62.8486 23.361 61.9493 23.361ZM61.9493 21.1C62.5953 21.1 63.1399 20.9607 63.5833 20.682C64.0266 20.3907 64.3623 20.0043 64.5903 19.523C64.8183 19.029 64.9323 18.4717 64.9323 17.851C64.9323 17.2177 64.8119 16.6603 64.5713 16.179C64.3433 15.685 64.0013 15.2987 63.5453 15.02C63.1019 14.7287 62.5699 14.583 61.9493 14.583C61.3286 14.583 60.7903 14.7287 60.3343 15.02C59.8909 15.2987 59.5489 15.685 59.3083 16.179C59.0676 16.6603 58.9473 17.2177 58.9473 17.851C58.9473 18.4717 59.0613 19.029 59.2893 19.523C59.5299 20.0043 59.8719 20.3907 60.3153 20.682C60.7586 20.9607 61.3033 21.1 61.9493 21.1ZM74.4648 23.361C73.5654 23.361 72.7864 23.209 72.1278 22.905C71.4818 22.601 70.9371 22.1957 70.4938 21.689C70.0631 21.1823 69.7401 20.6123 69.5248 19.979C69.3094 19.3457 69.2018 18.6997 69.2018 18.041V17.68C69.2018 16.9833 69.3094 16.3183 69.5248 15.685C69.7528 15.039 70.0884 14.469 70.5318 13.975C70.9751 13.4683 71.5198 13.0693 72.1658 12.778C72.8244 12.474 73.5844 12.322 74.4458 12.322C75.3451 12.322 76.1494 12.4993 76.8588 12.854C77.5681 13.196 78.1318 13.6773 78.5498 14.298C78.9804 14.9187 79.2211 15.6407 79.2718 16.464H76.7068C76.6434 15.932 76.4154 15.4887 76.0228 15.134C75.6428 14.7793 75.1171 14.602 74.4458 14.602C73.8631 14.602 73.3754 14.7413 72.9828 15.02C72.6028 15.2987 72.3178 15.685 72.1278 16.179C71.9378 16.6603 71.8428 17.2177 71.8428 17.851C71.8428 18.459 71.9314 19.01 72.1088 19.504C72.2988 19.998 72.5838 20.3843 72.9638 20.663C73.3564 20.9417 73.8568 21.081 74.4648 21.081C74.9208 21.081 75.3134 20.9987 75.6428 20.834C75.9721 20.6693 76.2318 20.4413 76.4218 20.15C76.6244 19.8587 76.7511 19.5293 76.8018 19.162H79.3668C79.3161 19.998 79.0691 20.7327 78.6258 21.366C78.1951 21.9867 77.6188 22.4743 76.8968 22.829C76.1874 23.1837 75.3768 23.361 74.4648 23.361ZM88.7024 23L85.2444 18.174H83.7054L88.0944 12.683H90.8494L86.8024 17.756L86.8594 16.426L91.6854 23H88.7024ZM81.4824 23V9.13H84.1234V23H81.4824ZM92.738 27.066V24.805H94.676C95.0433 24.805 95.3473 24.7543 95.588 24.653C95.8413 24.5643 96.0503 24.4123 96.215 24.197C96.3797 23.9943 96.5063 23.7093 96.595 23.342L99.369 12.683H101.896L98.837 23.912C98.6343 24.6847 98.3493 25.299 97.982 25.755C97.6147 26.2237 97.1397 26.5593 96.557 26.762C95.987 26.9647 95.2777 27.066 94.429 27.066H92.738ZM95.949 22.772V20.682H98.153V22.772H95.949ZM95.056 22.772L91.712 12.683H94.372L97.545 22.772H95.056ZM103.92 23V9.035H106.618V23H103.92ZM112.394 23L108.138 16.958H111.159L115.548 23H112.394ZM105.82 18.364V16.179H109.354C109.848 16.179 110.272 16.0777 110.627 15.875C110.994 15.6723 111.279 15.3873 111.482 15.02C111.685 14.6527 111.786 14.2347 111.786 13.766C111.786 13.2847 111.685 12.8603 111.482 12.493C111.279 12.1257 110.994 11.8407 110.627 11.638C110.272 11.4353 109.848 11.334 109.354 11.334H105.82V9.035H109.069C110.184 9.035 111.146 9.19967 111.957 9.529C112.78 9.85833 113.414 10.3587 113.857 11.03C114.3 11.7013 114.522 12.5437 114.522 13.557V13.861C114.522 14.887 114.294 15.7293 113.838 16.388C113.395 17.0467 112.768 17.5407 111.957 17.87C111.146 18.1993 110.184 18.364 109.069 18.364H105.82ZM122.159 23.361C121.247 23.361 120.443 23.2153 119.746 22.924C119.05 22.6327 118.461 22.24 117.979 21.746C117.498 21.2393 117.131 20.6693 116.877 20.036C116.637 19.4027 116.516 18.744 116.516 18.06V17.661C116.516 16.9517 116.643 16.2803 116.896 15.647C117.162 15.001 117.536 14.431 118.017 13.937C118.511 13.4303 119.107 13.0377 119.803 12.759C120.5 12.4677 121.285 12.322 122.159 12.322C123.033 12.322 123.819 12.4677 124.515 12.759C125.212 13.0377 125.801 13.4303 126.282 13.937C126.776 14.431 127.15 15.001 127.403 15.647C127.657 16.2803 127.783 16.9517 127.783 17.661V18.06C127.783 18.744 127.657 19.4027 127.403 20.036C127.163 20.6693 126.802 21.2393 126.32 21.746C125.839 22.24 125.25 22.6327 124.553 22.924C123.857 23.2153 123.059 23.361 122.159 23.361ZM122.159 21.1C122.805 21.1 123.35 20.9607 123.793 20.682C124.237 20.3907 124.572 20.0043 124.8 19.523C125.028 19.029 125.142 18.4717 125.142 17.851C125.142 17.2177 125.022 16.6603 124.781 16.179C124.553 15.685 124.211 15.2987 123.755 15.02C123.312 14.7287 122.78 14.583 122.159 14.583C121.539 14.583 121 14.7287 120.544 15.02C120.101 15.2987 119.759 15.685 119.518 16.179C119.278 16.6603 119.157 17.2177 119.157 17.851C119.157 18.4717 119.271 19.029 119.499 19.523C119.74 20.0043 120.082 20.3907 120.525 20.682C120.969 20.9607 121.513 21.1 122.159 21.1ZM136.347 23V19.941H135.91V16.54C135.91 15.9447 135.764 15.5013 135.473 15.21C135.181 14.9187 134.732 14.773 134.124 14.773C133.807 14.773 133.427 14.7793 132.984 14.792C132.54 14.8047 132.091 14.8237 131.635 14.849C131.191 14.8617 130.792 14.8807 130.438 14.906V12.664C130.729 12.6387 131.058 12.6133 131.426 12.588C131.793 12.5627 132.167 12.55 132.547 12.55C132.939 12.5373 133.307 12.531 133.649 12.531C134.713 12.531 135.593 12.6703 136.29 12.949C136.999 13.2277 137.531 13.6647 137.886 14.26C138.253 14.8553 138.437 15.6343 138.437 16.597V23H136.347ZM133.022 23.266C132.274 23.266 131.616 23.133 131.046 22.867C130.488 22.601 130.051 22.221 129.735 21.727C129.431 21.233 129.279 20.6377 129.279 19.941C129.279 19.181 129.462 18.5603 129.83 18.079C130.21 17.5977 130.735 17.2367 131.407 16.996C132.091 16.7553 132.889 16.635 133.801 16.635H136.195V18.212H133.763C133.155 18.212 132.686 18.364 132.357 18.668C132.04 18.9593 131.882 19.3393 131.882 19.808C131.882 20.2767 132.04 20.6567 132.357 20.948C132.686 21.2393 133.155 21.385 133.763 21.385C134.13 21.385 134.466 21.3217 134.77 21.195C135.086 21.0557 135.346 20.8277 135.549 20.511C135.764 20.1817 135.884 19.7383 135.91 19.181L136.556 19.922C136.492 20.644 136.315 21.252 136.024 21.746C135.745 22.24 135.352 22.62 134.846 22.886C134.352 23.1393 133.744 23.266 133.022 23.266ZM145.541 23.342C144.819 23.342 144.154 23.209 143.546 22.943C142.938 22.677 142.412 22.3033 141.969 21.822C141.525 21.3407 141.183 20.7833 140.943 20.15C140.702 19.504 140.582 18.8073 140.582 18.06V17.661C140.582 16.9263 140.696 16.236 140.924 15.59C141.164 14.944 141.494 14.3803 141.912 13.899C142.342 13.4177 142.855 13.044 143.451 12.778C144.059 12.4993 144.73 12.36 145.465 12.36C146.275 12.36 146.985 12.5373 147.593 12.892C148.213 13.234 148.707 13.7533 149.075 14.45C149.442 15.1467 149.645 16.0207 149.683 17.072L148.904 16.16V9.13H151.545V23H149.455V18.611H149.911C149.873 19.6623 149.657 20.5427 149.265 21.252C148.872 21.9487 148.353 22.4743 147.707 22.829C147.073 23.171 146.351 23.342 145.541 23.342ZM146.13 21.119C146.649 21.119 147.124 21.005 147.555 20.777C147.985 20.5363 148.327 20.1943 148.581 19.751C148.847 19.295 148.98 18.763 148.98 18.155V17.395C148.98 16.787 148.847 16.2803 148.581 15.875C148.315 15.457 147.966 15.1403 147.536 14.925C147.105 14.697 146.636 14.583 146.13 14.583C145.56 14.583 145.053 14.7223 144.61 15.001C144.179 15.267 143.837 15.647 143.584 16.141C143.343 16.635 143.223 17.2113 143.223 17.87C143.223 18.5287 143.349 19.105 143.603 19.599C143.856 20.0803 144.198 20.454 144.629 20.72C145.072 20.986 145.572 21.119 146.13 21.119Z"
        fill="black" />
</svg>
    